<svg xmlns="http://www.w3.org/2000/svg" xmlns:xlink="http://www.w3.org/1999/xlink" width="5000px" height="5000px" viewBox="0 0 4000 4000">
    <g id="f187d06e-8073-45a9-987a-fdc10a126243">
<g style="">
		<g id="f187d06e-8073-45a9-987a-fdc10a126243-child-0">
<path style="stroke: rgb(193,193,193); stroke-width: 0; stroke-dasharray: none; stroke-linecap: butt; stroke-dashoffset: 0; stroke-linejoin: miter; stroke-miterlimit: 4; fill: rgb(255,255,255); fill-rule: nonzero; opacity: 1;" transform="matrix(4.330271 0 0 4.330273 2000 2000.000001) matrix(1 0 0 1 0 0)  translate(-480.299097, -523.765891)" d="M 208.59 917.43 L 361.21 704.50 C 361.21 704.50 136.17 704.00 94.72 704.50 C 122.31 666.87 528.79 130.11 528.79 130.11 L 774.05 130.11 C 774.05 130.11 630.41 330.13 630.41 331.37 C 630.41 331.65 674.49 331.14 712.03 331.37 C 849.42 332.21 856.16 372.37 861.44 389.02 C 874.45 430.04 858.73 481.35 816.11 537.00 C 787.14 574.82 472.45 875.55 429.49 917.43 C 354.87 917.43 208.59 917.43 208.59 917.43 z" stroke-linecap="round"></path>
</g>
</g>
</g>

  </svg>